<svg width="400" height="44" viewBox="0 0 400 44" fill="none" xmlns="http://www.w3.org/2000/svg">
<path fill-rule="evenodd" clip-rule="evenodd" d="M329 20H330C330.552 20 331 20.4477 331 21V27C331 27.5523 330.552 28 330 28H329C328.448 28 328 27.5523 328 27V21C328 20.4477 328.448 20 329 20Z" fill="#B4B4B4"/>
<path fill-rule="evenodd" clip-rule="evenodd" d="M324.5 22H325.5C326.052 22 326.5 22.4477 326.5 23V27C326.5 27.5523 326.052 28 325.5 28H324.5C323.948 28 323.5 27.5523 323.5 27V23C323.5 22.4477 323.948 22 324.5 22Z" fill="#B4B4B4"/>
<path fill-rule="evenodd" clip-rule="evenodd" d="M320 23.5H321C321.552 23.5 322 23.9477 322 24.5V27C322 27.5523 321.552 28 321 28H320C319.448 28 319 27.5523 319 27V24.5C319 23.9477 319.448 23.5 320 23.5Z" fill="#B4B4B4"/>
<path fill-rule="evenodd" clip-rule="evenodd" d="M333.5 18H334.5C335.052 18 335.5 18.4477 335.5 19V27C335.5 27.5523 335.052 28 334.5 28H333.5C332.948 28 332.5 27.5523 332.5 27V19C332.5 18.4477 332.948 18 333.5 18Z" fill="#EBEBF5" fill-opacity="0.3"/>
<path fill-rule="evenodd" clip-rule="evenodd" d="M329 20H330C330.552 20 331 20.4477 331 21V27C331 27.5523 330.552 28 330 28H329C328.448 28 328 27.5523 328 27V21C328 20.4477 328.448 20 329 20Z" fill="#212121"/>
<path fill-rule="evenodd" clip-rule="evenodd" d="M324.5 22H325.5C326.052 22 326.5 22.4477 326.5 23V27C326.5 27.5523 326.052 28 325.5 28H324.5C323.948 28 323.5 27.5523 323.5 27V23C323.5 22.4477 323.948 22 324.5 22Z" fill="#212121"/>
<path fill-rule="evenodd" clip-rule="evenodd" d="M320 23.5H321C321.552 23.5 322 23.9477 322 24.5V27C322 27.5523 321.552 28 321 28H320C319.448 28 319 27.5523 319 27V24.5C319 23.9477 319.448 23.5 320 23.5Z" fill="#212121"/>
<path d="M349.133 24.9396C349.772 24.9396 350.394 25.1076 350.941 25.428L351.163 25.5579C351.331 25.6563 351.361 25.8866 351.223 26.0242L349.329 27.913C349.212 28.029 349.024 28.029 348.907 27.913L347.026 26.0363C346.888 25.8994 346.917 25.6702 347.084 25.5711L347.303 25.4406C347.855 25.1121 348.485 24.9396 349.133 24.9396Z" fill="#212121"/>
<path d="M349.133 21.4698C350.724 21.4698 352.251 21.9976 353.495 22.9749L353.671 23.113C353.811 23.2232 353.824 23.4306 353.697 23.5565L352.567 24.6841C352.462 24.7884 352.297 24.8004 352.178 24.7123L352.04 24.6098C351.2 23.9852 350.186 23.6502 349.133 23.6502C348.073 23.6502 347.053 23.9894 346.21 24.6211L346.072 24.7245C345.953 24.8134 345.787 24.8017 345.682 24.6971L344.552 23.5699C344.426 23.4443 344.438 23.2373 344.578 23.127L344.753 22.9888C346 22.0027 347.534 21.4698 349.133 21.4698Z" fill="#212121"/>
<path d="M349.133 18C351.657 18 354.072 18.8906 355.983 20.5229L356.146 20.6623C356.278 20.7749 356.285 20.9756 356.163 21.098L355.036 22.2219C354.926 22.3308 354.752 22.3385 354.634 22.2395L354.494 22.1228C352.989 20.8647 351.104 20.1804 349.133 20.1804C347.155 20.1804 345.263 20.8694 343.756 22.1354L343.617 22.2527C343.498 22.3521 343.324 22.3447 343.214 22.2356L342.087 21.1118C341.965 20.9895 341.972 20.7892 342.104 20.6765L342.266 20.5371C344.18 18.8959 346.601 18 349.133 18Z" fill="#212121"/>
<path d="M385 21C385.552 21 386 21.4477 386 22V24C386 24.5523 385.552 25 385 25V21Z" fill="#EBEBF5" fill-opacity="0.3"/>
<path fill-rule="evenodd" clip-rule="evenodd" d="M364 17H381C382.657 17 384 18.3431 384 20V26C384 27.6569 382.657 29 381 29H364C362.343 29 361 27.6569 361 26V20C361 18.3431 362.343 17 364 17ZM364 18C362.895 18 362 18.8954 362 20V26C362 27.1046 362.895 28 364 28H381C382.105 28 383 27.1046 383 26V20C383 18.8954 382.105 18 381 18H364Z" fill="#EBEBF5" fill-opacity="0.3"/>
<rect x="363" y="19" width="19" height="8" rx="1" fill="#212121"/>
<path d="M37.8672 28.0889C40.5552 28.0889 42.1519 25.9868 42.1519 22.4272C42.1519 21.0869 41.8955 19.959 41.4048 19.0874C40.6943 17.7324 39.4712 17 37.9258 17C35.626 17 34 18.5454 34 20.7134C34 22.7495 35.4648 24.229 37.479 24.229C38.7168 24.229 39.7202 23.6504 40.2183 22.647H40.2402C40.2402 22.647 40.2695 22.647 40.2769 22.647C40.2915 22.647 40.3428 22.647 40.3428 22.647C40.3428 25.064 39.4272 26.5068 37.8818 26.5068C36.9736 26.5068 36.2705 26.0088 36.0288 25.2104H34.1465C34.4614 26.9463 35.9336 28.0889 37.8672 28.0889ZM37.9331 22.7275C36.7173 22.7275 35.853 21.8633 35.853 20.6548C35.853 19.4756 36.7612 18.5747 37.9404 18.5747C39.1196 18.5747 40.0278 19.4902 40.0278 20.6841C40.0278 21.8633 39.1416 22.7275 37.9331 22.7275Z" fill="#212121"/>
<path d="M45.243 27.9863C45.9388 27.9863 46.4148 27.4883 46.4148 26.8291C46.4148 26.1626 45.9388 25.6719 45.243 25.6719C44.5545 25.6719 44.0711 26.1626 44.0711 26.8291C44.0711 27.4883 44.5545 27.9863 45.243 27.9863ZM45.243 22.4932C45.9388 22.4932 46.4148 22.0024 46.4148 21.3433C46.4148 20.6768 45.9388 20.186 45.243 20.186C44.5545 20.186 44.0711 20.6768 44.0711 21.3433C44.0711 22.0024 44.5545 22.4932 45.243 22.4932Z" fill="#212121"/>
<path d="M53.2706 27.8325H55.0797V25.8623H56.5079V24.2656H55.0797V17.2637H52.4137C50.546 20.0762 49.0592 22.4272 48.107 24.1777V25.8623H53.2706V27.8325ZM49.8575 24.1997C51.088 22.0317 52.1866 20.2959 53.1974 18.8018H53.2999V24.3096H49.8575V24.1997Z" fill="#212121"/>
<path d="M60.5365 27.8325H62.4262V17.2637H60.5438L57.7826 19.1973V21.0137L60.412 19.168H60.5365V27.8325Z" fill="#212121"/>
</svg>
